<svg xmlns="http://www.w3.org/2000/svg" viewBox="0 0 216.01 114.12"><defs><style>.cls-1{fill:#f79433;}.cls-2{fill:#fff;}</style></defs><title>LONGASSCHECKMARKLIGHT</title><g id="Layer_2" data-name="Layer 2"><g id="Layer_1-2" data-name="Layer 1"><circle class="cls-1" cx="63.04" cy="69.68" r="20.75"/><path class="cls-2" d="M0,83.52V55.68H12.78a8.48,8.48,0,0,1,3.77.84,10,10,0,0,1,3,2.19,10.52,10.52,0,0,1,1.94,3.1,9.16,9.16,0,0,1,.7,3.51,9.91,9.91,0,0,1-1,4.53,9.22,9.22,0,0,1-3,3.43L24,83.52H15.41L10.51,75H7.65v8.55ZM7.65,68.31h4.83a1.68,1.68,0,0,0,1.31-.79,3.54,3.54,0,0,0,.61-2.19,3.17,3.17,0,0,0-.71-2.22,2,2,0,0,0-1.41-.76H7.65Z"/><path class="cls-2" d="M36,55.68h7l9.64,27.84H44.9l-1.69-5.45h-7.4l-1.65,5.45h-7.8ZM42,73l-2.47-8.63L36.94,73Z"/><path class="cls-2" d="M78.28,83.52V55.68h7.65V83.52Z"/><path class="cls-2" d="M101.71,76c.16.1.33.19.51.28a8.18,8.18,0,0,0,1,.39,13.4,13.4,0,0,0,1.35.35,7.8,7.8,0,0,0,1.59.16,4.21,4.21,0,0,0,2-.39,2.58,2.58,0,0,0,1.14-1.28,7.26,7.26,0,0,0,.51-2.27c.08-.93.11-2.06.11-3.39V55.68h7.65V69.83a42.92,42.92,0,0,1-.35,5.78,10.86,10.86,0,0,1-1.53,4.45,7.7,7.7,0,0,1-3.43,2.87,15.1,15.1,0,0,1-6.06,1,10.37,10.37,0,0,1-6-1.72Z"/><path class="cls-2" d="M135.27,83.74a13.43,13.43,0,0,1-5.77-1.21,14.31,14.31,0,0,1-4.43-3.2,14.63,14.63,0,0,1-2.86-4.52,14.15,14.15,0,0,1-1-5.26,13.68,13.68,0,0,1,1.06-5.28,13.92,13.92,0,0,1,3-4.49,14.3,14.3,0,0,1,4.51-3.1,13.93,13.93,0,0,1,5.7-1.16,13.36,13.36,0,0,1,5.76,1.22A14,14,0,0,1,145.61,60a14.42,14.42,0,0,1,2.85,4.56,14.07,14.07,0,0,1,1,5.21A13.63,13.63,0,0,1,148.4,75a14.34,14.34,0,0,1-2.94,4.47A14.56,14.56,0,0,1,141,82.58,13.77,13.77,0,0,1,135.27,83.74ZM129,69.63a9.4,9.4,0,0,0,.4,2.73,7.1,7.1,0,0,0,1.17,2.33,5.81,5.81,0,0,0,2,1.64,6.74,6.74,0,0,0,5.71,0,5.94,5.94,0,0,0,2-1.69,7.22,7.22,0,0,0,1.14-2.37,9.88,9.88,0,0,0,.37-2.7,9.74,9.74,0,0,0-.39-2.73,6.63,6.63,0,0,0-1.2-2.31,6.1,6.1,0,0,0-2-1.61,6.85,6.85,0,0,0-5.65,0,5.8,5.8,0,0,0-2,1.67A7.17,7.17,0,0,0,129.32,67a10.19,10.19,0,0,0-.37,2.68Z"/><path class="cls-2" d="M170,64.77a21.41,21.41,0,0,0-2.43-1.25,21.69,21.69,0,0,0-2.37-.88,8.32,8.32,0,0,0-2.57-.41,3.61,3.61,0,0,0-1.63.31,1.1,1.1,0,0,0-.6,1.06,1.22,1.22,0,0,0,.35.9,3.38,3.38,0,0,0,1,.64,11.65,11.65,0,0,0,1.63.57l2.17.67A30.76,30.76,0,0,1,169,67.67a11.07,11.07,0,0,1,2.65,1.67,6.31,6.31,0,0,1,1.68,2.34,8.27,8.27,0,0,1,.59,3.33,8.8,8.8,0,0,1-.92,4.21,7.49,7.49,0,0,1-2.43,2.72,10,10,0,0,1-3.41,1.47,16.5,16.5,0,0,1-3.83.45,22,22,0,0,1-3.14-.23A27,27,0,0,1,157,83a27.44,27.44,0,0,1-3.06-1,18.49,18.49,0,0,1-2.72-1.33l3.29-6.7a25.29,25.29,0,0,0,2.86,1.53,20.24,20.24,0,0,0,2.85,1,10.66,10.66,0,0,0,3.23.47,3.27,3.27,0,0,0,1.74-.33,1,1,0,0,0,.49-.88,1.25,1.25,0,0,0-.49-1,4.31,4.31,0,0,0-1.35-.73q-.86-.31-2-.63c-.74-.21-1.53-.45-2.37-.74a20.54,20.54,0,0,1-3.17-1.35,8.46,8.46,0,0,1-2.2-1.65,5.76,5.76,0,0,1-1.27-2.09,8,8,0,0,1-.41-2.7,9.35,9.35,0,0,1,.84-4.08,8.34,8.34,0,0,1,2.29-2.94,10.34,10.34,0,0,1,3.31-1.79,12.6,12.6,0,0,1,3.94-.6,14.2,14.2,0,0,1,3,.29,22.21,22.21,0,0,1,2.8.75,25,25,0,0,1,2.53,1c.79.35,1.49.68,2.12,1Z"/><path class="cls-2" d="M202.74,55.68V83.52H195.1V72.62h-9.33v10.9h-7.65V55.68h7.65V66h9.33V55.68Z"/><path class="cls-2" d="M208.37,83.52V55.68H216V83.52Z"/><path class="cls-2" d="M12,101.55H7.14V114H4.84V101.55H0v-2H12Z"/><path class="cls-2" d="M19.2,114.12a6.29,6.29,0,0,1-2.83-.62,7,7,0,0,1-2.19-1.65,7.36,7.36,0,0,1-1.42-2.36,7.47,7.47,0,0,1-.5-2.71,7.31,7.31,0,0,1,.53-2.78,7.68,7.68,0,0,1,1.46-2.35,6.94,6.94,0,0,1,2.2-1.62,6.47,6.47,0,0,1,2.79-.6,6.15,6.15,0,0,1,2.82.64,7.15,7.15,0,0,1,2.19,1.69,8,8,0,0,1,1.41,2.35,7.56,7.56,0,0,1,0,5.46,7.4,7.4,0,0,1-1.46,2.34A7.27,7.27,0,0,1,22,113.52,6.4,6.4,0,0,1,19.2,114.12Zm-4.62-7.34a6,6,0,0,0,.33,2,5.43,5.43,0,0,0,.93,1.69,4.5,4.5,0,0,0,1.46,1.17,4.05,4.05,0,0,0,1.92.44,4,4,0,0,0,2-.46,4.65,4.65,0,0,0,1.44-1.21,5.47,5.47,0,0,0,.89-1.69,6.13,6.13,0,0,0,0-3.91,5.19,5.19,0,0,0-.93-1.68A4.64,4.64,0,0,0,21.11,102a4.11,4.11,0,0,0-1.89-.44,4,4,0,0,0-2,.46,4.68,4.68,0,0,0-1.45,1.19,5.19,5.19,0,0,0-.91,1.69A6.06,6.06,0,0,0,14.58,106.78Z"/><path class="cls-2" d="M28.48,114V99.53h6.3a4.07,4.07,0,0,1,1.81.41A4.7,4.7,0,0,1,38,101a5.3,5.3,0,0,1,.93,1.51,4.74,4.74,0,0,1,.33,1.73,5,5,0,0,1-.2,1.4,5.26,5.26,0,0,1-.57,1.25,4.25,4.25,0,0,1-.9,1,3.47,3.47,0,0,1-1.17.62L39.84,114H37.25l-3.14-5H30.76v5ZM30.76,107h4a1.89,1.89,0,0,0,.89-.21,2.15,2.15,0,0,0,.68-.6,3.06,3.06,0,0,0,.45-.86,3.29,3.29,0,0,0,.17-1,2.75,2.75,0,0,0-.2-1,2.92,2.92,0,0,0-.51-.86,2.26,2.26,0,0,0-.73-.58,1.81,1.81,0,0,0-.87-.22H30.76Z"/><path class="cls-2" d="M47.79,114.12A6.29,6.29,0,0,1,45,113.5a7,7,0,0,1-2.19-1.65,7.55,7.55,0,0,1-1.42-2.36,7.69,7.69,0,0,1-.5-2.71,7.51,7.51,0,0,1,.53-2.78,7.68,7.68,0,0,1,1.46-2.35A6.94,6.94,0,0,1,45,100a6.47,6.47,0,0,1,2.79-.6,6.2,6.2,0,0,1,2.83.64,7,7,0,0,1,2.18,1.69,7.78,7.78,0,0,1,1.41,2.35,7.62,7.62,0,0,1,.5,2.69,7.53,7.53,0,0,1-2,5.11,7.27,7.27,0,0,1-2.22,1.61A6.4,6.4,0,0,1,47.79,114.12Zm-4.61-7.34a6,6,0,0,0,.32,2,5.43,5.43,0,0,0,.93,1.69,4.5,4.5,0,0,0,1.46,1.17,4.05,4.05,0,0,0,1.92.44,4,4,0,0,0,1.95-.46,4.65,4.65,0,0,0,1.44-1.21,5.72,5.72,0,0,0,.9-1.69,6.31,6.31,0,0,0,.3-1.92,6,6,0,0,0-.33-2,5.17,5.17,0,0,0-.92-1.68A4.68,4.68,0,0,0,49.7,102a4.11,4.11,0,0,0-1.89-.44,4,4,0,0,0-2,.46,4.79,4.79,0,0,0-1.45,1.19,5.39,5.39,0,0,0-.91,1.69A6,6,0,0,0,43.18,106.78Z"/><path class="cls-2" d="M59.35,103.82V114H57.07V99.53h1.79L67.15,110V99.55h2.31V114h-1.9Z"/><path class="cls-2" d="M83.12,101.55H78.31V114H76V101.55H71.16v-2h12Z"/><path class="cls-2" d="M90.36,114.12a6.29,6.29,0,0,1-2.83-.62,7,7,0,0,1-2.19-1.65,7.55,7.55,0,0,1-1.42-2.36,7.69,7.69,0,0,1-.5-2.71A7.51,7.51,0,0,1,84,104a7.68,7.68,0,0,1,1.46-2.35,6.94,6.94,0,0,1,2.2-1.62,6.47,6.47,0,0,1,2.79-.6,6.2,6.2,0,0,1,2.83.64,7,7,0,0,1,2.18,1.69,7.78,7.78,0,0,1,1.41,2.35,7.62,7.62,0,0,1,.5,2.69,7.53,7.53,0,0,1-2,5.11,7.27,7.27,0,0,1-2.22,1.61A6.4,6.4,0,0,1,90.36,114.12Zm-4.61-7.34a6,6,0,0,0,.32,2,5.43,5.43,0,0,0,.93,1.69,4.5,4.5,0,0,0,1.46,1.17,4.05,4.05,0,0,0,1.92.44,4,4,0,0,0,2-.46,4.65,4.65,0,0,0,1.44-1.21,5.72,5.72,0,0,0,.9-1.69,6.31,6.31,0,0,0,.3-1.92,6,6,0,0,0-.33-2,5.17,5.17,0,0,0-.92-1.68A4.68,4.68,0,0,0,92.27,102a4.11,4.11,0,0,0-1.89-.44,4,4,0,0,0-2,.46A4.79,4.79,0,0,0,87,103.16a5.39,5.39,0,0,0-.91,1.69A6,6,0,0,0,85.75,106.78Z"/><path class="cls-2" d="M99.71,109.45v-2h6.1v2Z"/><path class="cls-2" d="M108.79,114V99.53h5.14a7.73,7.73,0,0,1,3.08.57,6.39,6.39,0,0,1,2.2,1.55,6.6,6.6,0,0,1,1.34,2.3,8.62,8.62,0,0,1,.44,2.81,8.38,8.38,0,0,1-.5,3,6.46,6.46,0,0,1-1.41,2.28,6.38,6.38,0,0,1-2.23,1.47,7.75,7.75,0,0,1-2.92.52Zm9.88-7.26a6.72,6.72,0,0,0-.32-2.11,4.56,4.56,0,0,0-.93-1.64,4.28,4.28,0,0,0-1.49-1.07,4.86,4.86,0,0,0-2-.39h-2.85V112h2.85a4.84,4.84,0,0,0,2-.4,4,4,0,0,0,1.49-1.1,4.54,4.54,0,0,0,.91-1.66A6.66,6.66,0,0,0,118.67,106.76Z"/><path class="cls-2" d="M127,99.53h2L134.72,114h-2.41l-1.53-3.94h-5.59L123.68,114h-2.43Zm3.33,8.86L128,102.16l-2.4,6.23Z"/><path class="cls-2" d="M138.64,103.82V114h-2.29V99.53h1.8L146.44,110V99.55h2.3V114h-1.9Z"/><path class="cls-2" d="M152,114V99.53h9.65v2h-7.36v4.33h6.16v1.9h-6.16V114Z"/><path class="cls-2" d="M169.32,114.12a6.35,6.35,0,0,1-2.83-.62,7,7,0,0,1-2.19-1.65,7.71,7.71,0,0,1-1.92-5.07,7.51,7.51,0,0,1,.53-2.78,7.88,7.88,0,0,1,1.46-2.35,7,7,0,0,1,2.21-1.62,6.42,6.42,0,0,1,2.78-.6,6.17,6.17,0,0,1,2.83.64,7,7,0,0,1,2.18,1.69,7.72,7.72,0,0,1,1.91,5,7.45,7.45,0,0,1-.52,2.77,7.21,7.21,0,0,1-3.67,4A6.44,6.44,0,0,1,169.32,114.12Zm-4.61-7.34a6,6,0,0,0,.33,2,5.22,5.22,0,0,0,.92,1.69,4.6,4.6,0,0,0,1.46,1.17,4.05,4.05,0,0,0,1.92.44,4,4,0,0,0,1.95-.46,4.54,4.54,0,0,0,1.44-1.21,5.49,5.49,0,0,0,.9-1.69,6.31,6.31,0,0,0,.3-1.92,6.24,6.24,0,0,0-.32-2,5.38,5.38,0,0,0-.93-1.68,4.68,4.68,0,0,0-1.45-1.16,4.34,4.34,0,0,0-3.85,0,4.79,4.79,0,0,0-1.45,1.19,5.6,5.6,0,0,0-.91,1.69A6,6,0,0,0,164.71,106.78Z"/><path class="cls-2" d="M178.6,114V99.53h6.31a4,4,0,0,1,1.8.41,4.58,4.58,0,0,1,1.42,1.07,5.09,5.09,0,0,1,.93,1.51,4.76,4.76,0,0,1,.34,1.73,4.65,4.65,0,0,1-.21,1.4,4.58,4.58,0,0,1-.57,1.25,3.85,3.85,0,0,1-.9,1,3.52,3.52,0,0,1-1.16.62L190,114h-2.59l-3.15-5h-3.34v5Zm2.29-7.06h4a1.84,1.84,0,0,0,.88-.21,2.08,2.08,0,0,0,.69-.6,3.06,3.06,0,0,0,.45-.86,3.28,3.28,0,0,0,.16-1,2.75,2.75,0,0,0-.19-1,2.92,2.92,0,0,0-.51-.86,2.29,2.29,0,0,0-.74-.58,1.81,1.81,0,0,0-.87-.22h-3.87Z"/><path class="cls-2" d="M202.42,101.55H197.6V114h-2.3V101.55h-4.84v-2h12Z"/><path class="cls-2" d="M216,99.53V114h-2.3v-6.39H206.4V114h-2.28V99.53h2.28v6.06h7.31V99.53Z"/><polygon class="cls-2" points="65.55 83.51 96.24 0 84.14 0 62.37 73.91 59.99 65.95 52.66 65.95 59.19 83.51 65.55 83.51"/></g></g></svg>