<svg xmlns="http://www.w3.org/2000/svg" viewBox="0 0 1920 583.04"><defs><style>.cls-1{fill:#ffffff;}.cls-2{fill:#2b0f2c;}</style></defs><title>RGB_Dark</title><g id="Layer_2" data-name="Layer 2"><g id="Layer_1-2" data-name="Layer 1"><circle class="cls-1" cx="560.31" cy="245.96" r="184.47"/><path class="cls-2" d="M102.23,490.63H67.71V582h-33v-91.4H0V461.86H102.23Z"/><path class="cls-2" d="M172.62,583a57.92,57.92,0,0,1-24.88-5.24A61.48,61.48,0,0,1,128.62,564a62.47,62.47,0,0,1-12.36-19.55,60.38,60.38,0,0,1-4.4-22.68,59.18,59.18,0,0,1,4.57-22.85,61,61,0,0,1,12.77-19.38,62.38,62.38,0,0,1,19.47-13.36,60,60,0,0,1,24.63-5,57.78,57.78,0,0,1,24.88,5.25,60.75,60.75,0,0,1,19.12,13.88,62.36,62.36,0,0,1,12.27,19.63,61.12,61.12,0,0,1,4.32,22.51,58.53,58.53,0,0,1-4.57,22.77A61.53,61.53,0,0,1,197.25,578,59.16,59.16,0,0,1,172.62,583Zm-27.24-60.93a40.78,40.78,0,0,0,1.69,11.76,30.41,30.41,0,0,0,5.07,10.07,25.48,25.48,0,0,0,8.55,7.11,28.93,28.93,0,0,0,24.62-.08,25,25,0,0,0,8.55-7.28,31.46,31.46,0,0,0,4.91-10.24,43.2,43.2,0,0,0,1.61-11.68A41.18,41.18,0,0,0,198.69,510a29.12,29.12,0,0,0-5.17-10,27.86,27.86,0,0,0-33-6.85,25.25,25.25,0,0,0-8.55,7.19,30.51,30.51,0,0,0-5,10.16A42.33,42.33,0,0,0,145.38,522.11Z"/><path class="cls-2" d="M255.18,582V461.86h55.17a36.44,36.44,0,0,1,16.25,3.64A42,42,0,0,1,339.38,475a44.11,44.11,0,0,1,8.38,13.37,40.12,40.12,0,0,1,3.05,15.14A42.83,42.83,0,0,1,346.24,523a39.79,39.79,0,0,1-12.7,14.81L358.93,582H321.69l-21.15-36.9H288.18V582Zm33-65.67H309q3,0,5.68-3.39t2.61-9.48q0-6.25-3-9.56t-6.1-3.3h-20Z"/><path class="cls-2" d="M428.61,583a57.94,57.94,0,0,1-24.89-5.24A61.6,61.6,0,0,1,384.6,564a62.65,62.65,0,0,1-12.36-19.55,60.57,60.57,0,0,1-4.39-22.68,59,59,0,0,1,4.57-22.85,60.68,60.68,0,0,1,12.77-19.38,62.26,62.26,0,0,1,19.47-13.36,60,60,0,0,1,24.62-5,57.75,57.75,0,0,1,24.88,5.25,60.91,60.91,0,0,1,19.13,13.88,62.36,62.36,0,0,1,12.27,19.63,61.11,61.11,0,0,1,4.31,22.51,58.52,58.52,0,0,1-4.56,22.77A61.5,61.5,0,0,1,453.23,578,59.08,59.08,0,0,1,428.61,583Zm-27.25-60.93a40.78,40.78,0,0,0,1.69,11.76,30.8,30.8,0,0,0,5.07,10.07,25.61,25.61,0,0,0,8.56,7.11A28.93,28.93,0,0,0,441.3,551a25,25,0,0,0,8.55-7.28,31.46,31.46,0,0,0,4.91-10.24,43.19,43.19,0,0,0,1.6-11.68A40.83,40.83,0,0,0,454.67,510a29.1,29.1,0,0,0-5.16-10,27.88,27.88,0,0,0-33-6.85,25.31,25.31,0,0,0-8.54,7.19,30.72,30.72,0,0,0-5,10.16A42.33,42.33,0,0,0,401.36,522.11Z"/><path class="cls-2" d="M544.17,523V582h-33V461.86h25.72L585.13,523v-61.1h33V582H591.9Z"/><path class="cls-2" d="M736.67,490.63H702.15V582h-33v-91.4h-34.7V461.86H736.67Z"/><path class="cls-2" d="M807.06,583a57.92,57.92,0,0,1-24.88-5.24A61.48,61.48,0,0,1,763.06,564a62.47,62.47,0,0,1-12.36-19.55,60.38,60.38,0,0,1-4.4-22.68,59.18,59.18,0,0,1,4.57-22.85,61,61,0,0,1,12.77-19.38,62.38,62.38,0,0,1,19.47-13.36,60,60,0,0,1,24.63-5,57.78,57.78,0,0,1,24.88,5.25,60.75,60.75,0,0,1,19.12,13.88A62.36,62.36,0,0,1,864,499.94a61.12,61.12,0,0,1,4.32,22.51,58.35,58.35,0,0,1-4.57,22.77,61.75,61.75,0,0,1-12.69,19.29A62.52,62.52,0,0,1,831.69,578,59.16,59.16,0,0,1,807.06,583Zm-27.24-60.93a40.78,40.78,0,0,0,1.69,11.76,30.41,30.41,0,0,0,5.07,10.07,25.48,25.48,0,0,0,8.55,7.11,28.93,28.93,0,0,0,24.62-.08,25,25,0,0,0,8.55-7.28,31.46,31.46,0,0,0,4.91-10.24,43.2,43.2,0,0,0,1.61-11.68A41.18,41.18,0,0,0,833.13,510,29.12,29.12,0,0,0,828,500a27.86,27.86,0,0,0-33-6.85,25.35,25.35,0,0,0-8.55,7.19,30.51,30.51,0,0,0-5,10.16A42.33,42.33,0,0,0,779.82,522.11Z"/><path class="cls-2" d="M892,549.7V520.93h53V549.7Z"/><path class="cls-2" d="M972.37,582V461.86h46.2q14.89,0,26.23,4.74a52.79,52.79,0,0,1,30.47,31.9,68.93,68.93,0,0,1,3.9,23.27,67.82,67.82,0,0,1-4.33,24.8,53.52,53.52,0,0,1-12.26,18.95,55,55,0,0,1-19.13,12.19,68.49,68.49,0,0,1-24.88,4.32Zm73.28-60.26a41.12,41.12,0,0,0-1.86-12.69,28.47,28.47,0,0,0-5.33-9.82,24.21,24.21,0,0,0-8.55-6.34,27.26,27.26,0,0,0-11.34-2.29h-13.2v62.62h13.2a26.73,26.73,0,0,0,11.51-2.37,24,24,0,0,0,8.55-6.6,29,29,0,0,0,5.24-10A42.12,42.12,0,0,0,1045.65,521.77Z"/><path class="cls-2" d="M1126.55,461.86h30.13L1198.31,582H1164.8l-7.28-23.53h-32l-7.1,23.53h-33.68Zm25.72,74.64-10.65-37.24-11.18,37.24Z"/><path class="cls-2" d="M1246.65,523V582h-33V461.86h25.73l48.24,61.1v-61.1h33V582h-26.23Z"/><path class="cls-2" d="M1348.92,582V461.86h82.42v28.77h-49.41v20h40.28v26.75h-40.28V582Z"/><path class="cls-2" d="M1502.26,583a57.92,57.92,0,0,1-24.88-5.24,61.48,61.48,0,0,1-19.12-13.8,62.47,62.47,0,0,1-12.36-19.55,60.38,60.38,0,0,1-4.4-22.68,59.18,59.18,0,0,1,4.57-22.85,61,61,0,0,1,12.77-19.38,62.38,62.38,0,0,1,19.47-13.36,60,60,0,0,1,24.63-5,57.78,57.78,0,0,1,24.88,5.25,60.75,60.75,0,0,1,19.12,13.88,62.21,62.21,0,0,1,12.28,19.63,61.32,61.32,0,0,1,4.31,22.51,58.35,58.35,0,0,1-4.57,22.77,61.75,61.75,0,0,1-12.69,19.29A62.52,62.52,0,0,1,1526.89,578,59.13,59.13,0,0,1,1502.26,583ZM1475,522.11a40.78,40.78,0,0,0,1.69,11.76,30.41,30.41,0,0,0,5.07,10.07,25.57,25.57,0,0,0,8.55,7.11A28.93,28.93,0,0,0,1515,551a25,25,0,0,0,8.55-7.28,31.46,31.46,0,0,0,4.91-10.24,43.2,43.2,0,0,0,1.61-11.68,41.18,41.18,0,0,0-1.69-11.76,29,29,0,0,0-5.17-10,27.86,27.86,0,0,0-33-6.85,25.22,25.22,0,0,0-8.54,7.19,30.34,30.34,0,0,0-5,10.16A42.33,42.33,0,0,0,1475,522.11Z"/><path class="cls-2" d="M1584.82,582V461.86H1640a36.44,36.44,0,0,1,16.25,3.64A42.19,42.19,0,0,1,1669,475a44.28,44.28,0,0,1,8.37,13.37,40.12,40.12,0,0,1,3,15.14,42.83,42.83,0,0,1-4.57,19.55,39.79,39.79,0,0,1-12.7,14.81L1688.57,582h-37.24l-21.15-36.9h-12.35V582Zm33-65.67h20.81q3,0,5.67-3.39t2.63-9.48q0-6.25-3-9.56t-6.1-3.3h-20Z"/><path class="cls-2" d="M1797.39,490.63h-34.52V582h-33v-91.4h-34.69V461.86h102.22Z"/><path class="cls-2" d="M1920,461.86V582h-33V535h-40.27V582h-33V461.86h33V506.2H1887V461.86Z"/><path class="cls-2" d="M0,369V121.55H113.59A75.28,75.28,0,0,1,147.05,129a86.87,86.87,0,0,1,26.3,19.51,90.91,90.91,0,0,1,17.25,27.53,82.62,82.62,0,0,1,6.28,31.19,88.05,88.05,0,0,1-9.41,40.24A82,82,0,0,1,161.33,278L213.6,369H136.94L93.38,293H68v76Zm68-135.2h42.86q6.27,0,11.67-7t5.41-19.51q0-12.9-6.28-19.69t-12.54-6.8H68Z"/><path class="cls-2" d="M320.33,121.55h62L468.08,369h-69l-15-48.44H318.24L303.61,369H234.27Zm53,153.66-22-76.66-23,76.66Z"/><path class="cls-2" d="M695.74,369V121.55h68V369Z"/><path class="cls-2" d="M904,302a46.06,46.06,0,0,0,4.53,2.44,65.43,65.43,0,0,0,8.7,3.49,104,104,0,0,0,12,3.13,69.26,69.26,0,0,0,14.11,1.4q10.8,0,17.42-3.49a22.62,22.62,0,0,0,10.11-11.32c2.31-5.23,3.84-12,4.53-20.21s1-18.29,1-30.14V121.55h68V247.34a383.48,383.48,0,0,1-3.14,51.39q-3.12,23.17-13.58,39.55t-30.49,25.44q-20,9.06-53.84,9.06-31.35,0-53.66-15.33Z"/><path class="cls-2" d="M1202.3,371q-28.23,0-51.22-10.8a126.8,126.8,0,0,1-39.38-28.4,128.8,128.8,0,0,1-25.43-40.25,124.42,124.42,0,0,1-9.06-46.69,121.33,121.33,0,0,1,9.41-47,124.67,124.67,0,0,1,26.31-39.9A128.27,128.27,0,0,1,1153,130.43q23.16-10.28,50.7-10.28,28.21,0,51.21,10.81a125.24,125.24,0,0,1,39.38,28.57A128.33,128.33,0,0,1,1319.56,200a126,126,0,0,1,8.88,46.34,120.1,120.1,0,0,1-9.41,46.87,126.92,126.92,0,0,1-26.13,39.72,128.59,128.59,0,0,1-39.89,27.7Q1229.82,371,1202.3,371Zm-56.1-125.45a83.94,83.94,0,0,0,3.49,24.22,62.86,62.86,0,0,0,10.45,20.73,52.53,52.53,0,0,0,17.6,14.64q10.62,5.58,25.26,5.57t25.44-5.74A51.64,51.64,0,0,0,1246,290a64.47,64.47,0,0,0,10.11-21.08,89.15,89.15,0,0,0,3.31-24,84.73,84.73,0,0,0-3.48-24.22,59.75,59.75,0,0,0-10.64-20.56,53.78,53.78,0,0,0-17.76-14.28q-10.65-5.4-24.92-5.4-14.62,0-25.26,5.57a51.92,51.92,0,0,0-17.59,14.81,62.67,62.67,0,0,0-10.29,20.91A87.31,87.31,0,0,0,1146.2,245.59Z"/><path class="cls-2" d="M1510.61,202.39A187.76,187.76,0,0,0,1489,191.24a197.13,197.13,0,0,0-21.08-7.84,76,76,0,0,0-22.82-3.66c-6,0-10.86.93-14.46,2.78s-5.4,5-5.4,9.41a10.82,10.82,0,0,0,3.14,8,29.55,29.55,0,0,0,9.06,5.75,112.51,112.51,0,0,0,14.45,5.05q8.55,2.44,19.34,5.92a255,255,0,0,1,30.84,11.5A95.53,95.53,0,0,1,1525.59,243a57.11,57.11,0,0,1,15,20.74q5.22,12.19,5.22,29.61,0,22.31-8.18,37.46A67.16,67.16,0,0,1,1516,355a91.18,91.18,0,0,1-30.32,13.07,147.34,147.34,0,0,1-34,4,193.07,193.07,0,0,1-27.88-2.09,240,240,0,0,1-28.4-5.92,250.8,250.8,0,0,1-27.17-9.06,172.32,172.32,0,0,1-24.21-11.85l29.26-59.58a205.79,205.79,0,0,0,25.43,13.59,180.33,180.33,0,0,0,25.27,9.4,100.6,100.6,0,0,0,28.75,4.18q11.14,0,15.51-3a9.09,9.09,0,0,0,4.35-7.84,11.24,11.24,0,0,0-4.35-8.88,40.07,40.07,0,0,0-12-6.45q-7.68-2.79-17.61-5.58t-21.08-6.61a181.26,181.26,0,0,1-28.22-12,76.28,76.28,0,0,1-19.51-14.63,52.31,52.31,0,0,1-11.33-18.64,72.64,72.64,0,0,1-3.66-24q0-20.57,7.49-36.24a74.41,74.41,0,0,1,20.39-26.14,91.12,91.12,0,0,1,29.44-15.85,112.19,112.19,0,0,1,35-5.4,133,133,0,0,1,26.48,2.61,211.69,211.69,0,0,1,24.92,6.62,237.8,237.8,0,0,1,22.47,8.71q10.45,4.71,18.82,8.89Z"/><path class="cls-2" d="M1802.08,121.55V369h-67.94V272.08H1651.2V369h-67.94V121.55h67.94v91.29h82.94V121.55Z"/><path class="cls-2" d="M1852.06,369V121.55H1920V369Z"/><polygon class="cls-2" points="637.89 0 554.34 283.57 533.2 212.84 468.07 212.84 526.12 368.95 582.57 368.95 718.2 0 637.89 0"/></g></g></svg>