<?xml version="1.0" standalone="no"?>
<!DOCTYPE svg PUBLIC "-//W3C//DTD SVG 20010904//EN"
 "http://www.w3.org/TR/2001/REC-SVG-20010904/DTD/svg10.dtd">
<svg version="1.0" xmlns="http://www.w3.org/2000/svg"
 width="700.000000pt" height="700.000000pt" viewBox="0 0 700.000000 700.000000"
 preserveAspectRatio="xMidYMid meet">
<metadata>
Created by potrace 1.11, written by Peter Selinger 2001-2013
</metadata>
<g transform="translate(0.000000,700.000000) scale(0.100000,-0.100000)"
fill="#000000" stroke="none">
<path d="M3298 6995 c-2 -2 -43 -6 -93 -9 -49 -4 -98 -9 -110 -11 -11 -2 -45
-7 -75 -10 -91 -10 -227 -36 -415 -80 -258 -61 -636 -219 -896 -375 -372 -224
-745 -555 -989 -879 -14 -18 -34 -45 -46 -59 -35 -44 -138 -201 -196 -298
-199 -332 -355 -748 -423 -1129 -14 -76 -25 -146 -30 -185 -3 -25 -10 -76 -14
-115 -10 -75 -8 -667 2 -725 4 -19 9 -55 12 -80 10 -80 35 -231 46 -278 6 -26
12 -54 14 -62 1 -8 8 -35 15 -60 7 -25 13 -49 14 -55 31 -141 146 -444 242
-635 182 -361 379 -634 659 -915 151 -151 178 -177 270 -250 28 -22 52 -43 55
-46 22 -26 349 -249 366 -249 4 0 15 -6 23 -14 26 -23 298 -159 417 -209 167
-69 433 -154 574 -182 8 -2 26 -6 40 -9 29 -7 72 -15 115 -22 17 -3 53 -9 80
-14 28 -5 77 -12 110 -16 33 -3 89 -9 125 -14 110 -14 619 -5 760 14 699 95
1330 383 1870 855 517 453 891 1065 1064 1743 20 75 38 150 41 165 2 15 7 39
10 53 3 14 8 41 11 60 3 19 7 42 9 50 2 8 7 41 10 73 4 32 8 67 10 79 25 128
25 734 0 811 -2 6 -6 35 -9 62 -9 79 -44 263 -66 345 -7 25 -14 53 -16 63 -1
10 -15 57 -29 105 -192 637 -548 1195 -1045 1640 -29 27 -47 36 -51 29 -4 -7
-84 -223 -178 -482 -95 -258 -177 -481 -183 -495 -5 -14 -27 -72 -48 -130 -44
-122 -309 -844 -345 -940 -45 -118 -285 -773 -336 -915 -28 -77 -54 -149 -59
-160 -5 -11 -43 -114 -85 -230 -42 -115 -80 -220 -85 -233 -5 -12 -69 -183
-141 -380 -72 -196 -184 -502 -250 -680 -65 -177 -119 -327 -119 -332 0 -7
-191 -10 -539 -10 l-540 0 -20 55 c-12 30 -30 81 -42 113 -11 31 -24 66 -29
77 -10 22 -128 340 -158 425 -11 30 -74 199 -140 375 -66 176 -163 437 -216
580 -53 143 -103 276 -111 295 -14 36 -93 248 -274 735 -55 149 -102 277 -106
286 -6 15 45 17 612 17 l619 1 18 -62 c38 -127 228 -766 256 -857 16 -52 51
-168 77 -258 l49 -162 27 87 c14 49 63 212 107 363 44 151 92 311 105 355 41
135 306 1036 325 1105 10 36 39 135 65 220 149 501 228 766 229 775 2 12 34
119 47 155 4 14 14 45 20 70 14 52 14 50 21 70 3 8 31 103 62 210 69 236 141
483 166 567 l18 61 -81 26 c-75 23 -256 69 -317 80 -30 5 -84 14 -125 21 -139
24 -322 38 -522 40 -128 1 -234 1 -235 0z"/>
</g>
</svg>
