<svg xmlns="http://www.w3.org/2000/svg" viewBox="0 0 216.01 72.12"><defs><style>.cls-1{fill:#f79433;}.cls-2{fill:#fff;}</style></defs><title>RGB_Light</title><g id="Layer_2" data-name="Layer 2"><g id="Layer_1-2" data-name="Layer 1"><circle class="cls-1" cx="63.04" cy="27.67" r="20.75"/><path class="cls-2" d="M0,41.52V13.68H12.78a8.47,8.47,0,0,1,3.77.83,10,10,0,0,1,3,2.2,10.52,10.52,0,0,1,1.94,3.1,9.15,9.15,0,0,1,.7,3.5,9.85,9.85,0,0,1-1,4.53,9.33,9.33,0,0,1-3,3.44L24,41.52H15.41L10.51,33H7.65v8.56ZM7.65,26.3h4.83a1.7,1.7,0,0,0,1.31-.78,3.57,3.57,0,0,0,.61-2.2,3.14,3.14,0,0,0-.71-2.21,2,2,0,0,0-1.41-.77H7.65Z"/><path class="cls-2" d="M36,13.68h7l9.64,27.84H44.9l-1.69-5.45h-7.4l-1.65,5.45h-7.8ZM42,31l-2.47-8.62L36.94,31Z"/><path class="cls-2" d="M78.28,41.52V13.68h7.65V41.52Z"/><path class="cls-2" d="M101.71,34a4.11,4.11,0,0,0,.51.27,5.78,5.78,0,0,0,1,.39,11.23,11.23,0,0,0,1.35.36,7.78,7.78,0,0,0,1.59.15,4.21,4.21,0,0,0,2-.39,2.52,2.52,0,0,0,1.14-1.27,7.27,7.27,0,0,0,.51-2.28c.08-.92.11-2.05.11-3.39V13.68h7.65V27.83a43,43,0,0,1-.35,5.78,10.86,10.86,0,0,1-1.53,4.45,7.68,7.68,0,0,1-3.43,2.86,14.91,14.91,0,0,1-6.06,1,10.37,10.37,0,0,1-6-1.72Z"/><path class="cls-2" d="M135.27,41.74a13.43,13.43,0,0,1-5.77-1.22,14.12,14.12,0,0,1-4.43-3.19,14.68,14.68,0,0,1-2.86-4.53,14.1,14.1,0,0,1-1-5.25,13.73,13.73,0,0,1,1.06-5.29,14,14,0,0,1,3-4.49,14.47,14.47,0,0,1,4.51-3.1,13.92,13.92,0,0,1,5.7-1.15,13.35,13.35,0,0,1,5.76,1.21A14.14,14.14,0,0,1,145.61,18a14.38,14.38,0,0,1,2.85,4.55,14.11,14.11,0,0,1,1,5.21A13.64,13.64,0,0,1,148.4,33a14.34,14.34,0,0,1-2.94,4.47A14.53,14.53,0,0,1,141,40.57,13.77,13.77,0,0,1,135.27,41.74ZM129,27.63a9.28,9.28,0,0,0,.4,2.72,7,7,0,0,0,1.17,2.33,6,6,0,0,0,2,1.65,6.69,6.69,0,0,0,5.71,0,5.8,5.8,0,0,0,2-1.68,7.32,7.32,0,0,0,1.14-2.37,9.88,9.88,0,0,0,.37-2.7,9.64,9.64,0,0,0-.39-2.73,6.54,6.54,0,0,0-1.2-2.31,6,6,0,0,0-2-1.61,6.22,6.22,0,0,0-2.81-.61,6,6,0,0,0-2.84.63,5.8,5.8,0,0,0-2,1.67A7.07,7.07,0,0,0,129.32,25a10.08,10.08,0,0,0-.37,2.68Z"/><path class="cls-2" d="M170,22.77a19.89,19.89,0,0,0-2.43-1.25,21.75,21.75,0,0,0-2.37-.89,9,9,0,0,0-2.57-.41,3.76,3.76,0,0,0-1.63.31,1.11,1.11,0,0,0-.6,1.06,1.19,1.19,0,0,0,.35.9,3.22,3.22,0,0,0,1,.65,11.65,11.65,0,0,0,1.63.57c.64.18,1.36.4,2.17.66a29,29,0,0,1,3.47,1.3,10.77,10.77,0,0,1,2.65,1.67,6.36,6.36,0,0,1,1.68,2.33,8.33,8.33,0,0,1,.59,3.33,8.84,8.84,0,0,1-.92,4.22,7.57,7.57,0,0,1-2.43,2.72,10.44,10.44,0,0,1-3.41,1.47,16.5,16.5,0,0,1-3.83.45,22,22,0,0,1-3.14-.23A27,27,0,0,1,157,41a27.44,27.44,0,0,1-3.06-1,19.55,19.55,0,0,1-2.72-1.33l3.29-6.71a22.44,22.44,0,0,0,2.86,1.53,19.11,19.11,0,0,0,2.85,1.06,11.32,11.32,0,0,0,3.23.47,3.16,3.16,0,0,0,1.74-.34,1,1,0,0,0,.49-.88,1.26,1.26,0,0,0-.49-1,4.29,4.29,0,0,0-1.35-.72q-.86-.32-2-.63t-2.37-.75a19.6,19.6,0,0,1-3.17-1.35,8.42,8.42,0,0,1-2.2-1.64,5.8,5.8,0,0,1-1.27-2.1,8,8,0,0,1-.41-2.7,9.41,9.41,0,0,1,.84-4.08,8.43,8.43,0,0,1,2.29-2.94,10.31,10.31,0,0,1,3.31-1.78,12.91,12.91,0,0,1,3.94-.61,14.91,14.91,0,0,1,3,.3,24,24,0,0,1,2.8.74,25,25,0,0,1,2.53,1c.79.35,1.49.69,2.12,1Z"/><path class="cls-2" d="M202.74,13.68V41.52H195.1V30.61h-9.33V41.52h-7.65V13.68h7.65V24h9.33V13.68Z"/><path class="cls-2" d="M208.37,41.52V13.68H216V41.52Z"/><polygon class="cls-2" points="71.77 0 62.37 31.9 59.99 23.95 52.66 23.95 59.19 41.51 65.55 41.51 80.8 0 71.77 0"/><path class="cls-2" d="M12,59.55H7.14V72H4.84V59.55H0v-2H12Z"/><path class="cls-2" d="M19.2,72.12a6.42,6.42,0,0,1-2.83-.62,7.06,7.06,0,0,1-2.19-1.66,7.21,7.21,0,0,1-1.42-2.35,7.53,7.53,0,0,1-.5-2.72A7.26,7.26,0,0,1,12.79,62a7.56,7.56,0,0,1,1.46-2.35A6.94,6.94,0,0,1,16.45,58a6.48,6.48,0,0,1,2.79-.61,6.16,6.16,0,0,1,2.82.65,7.27,7.27,0,0,1,2.19,1.68,8,8,0,0,1,1.41,2.36,7.57,7.57,0,0,1,.5,2.68,7.71,7.71,0,0,1-.52,2.78,7.47,7.47,0,0,1-1.46,2.33A7.14,7.14,0,0,1,22,71.52,6.4,6.4,0,0,1,19.2,72.12Zm-4.62-7.35a6,6,0,0,0,.33,2,5.49,5.49,0,0,0,.93,1.7,4.5,4.5,0,0,0,1.46,1.17,4.18,4.18,0,0,0,1.92.44,4.13,4.13,0,0,0,2-.46,4.69,4.69,0,0,0,1.44-1.22,5.36,5.36,0,0,0,.89-1.69,6.13,6.13,0,0,0,0-3.91,5.14,5.14,0,0,0-.93-1.67A4.64,4.64,0,0,0,21.11,60a4.34,4.34,0,0,0-3.85,0,4.54,4.54,0,0,0-1.45,1.19,5.25,5.25,0,0,0-.91,1.68A6.15,6.15,0,0,0,14.58,64.77Z"/><path class="cls-2" d="M28.48,72V57.53h6.3a3.94,3.94,0,0,1,1.81.41A4.55,4.55,0,0,1,38,59a5.17,5.17,0,0,1,.93,1.51,4.69,4.69,0,0,1,.33,1.72,5.06,5.06,0,0,1-.2,1.41,5.19,5.19,0,0,1-.57,1.24,3.89,3.89,0,0,1-.9,1,3.68,3.68,0,0,1-1.17.63L39.84,72H37.25l-3.14-5H30.76v5ZM30.76,65h4a1.89,1.89,0,0,0,.89-.22,2.12,2.12,0,0,0,.68-.59,3,3,0,0,0,.45-.87,3.19,3.19,0,0,0,.17-1,2.79,2.79,0,0,0-.2-1,3.06,3.06,0,0,0-.51-.86,2.4,2.4,0,0,0-.73-.58,1.92,1.92,0,0,0-.87-.21H30.76Z"/><path class="cls-2" d="M47.79,72.12A6.42,6.42,0,0,1,45,71.5a7.06,7.06,0,0,1-2.19-1.66,7.39,7.39,0,0,1-1.42-2.35,7.75,7.75,0,0,1-.5-2.72A7.46,7.46,0,0,1,41.38,62a7.56,7.56,0,0,1,1.46-2.35A6.94,6.94,0,0,1,45,58a6.48,6.48,0,0,1,2.79-.61,6.2,6.2,0,0,1,2.83.65,7.11,7.11,0,0,1,2.18,1.68,7.83,7.83,0,0,1,1.41,2.36,7.56,7.56,0,0,1,0,5.46,7.47,7.47,0,0,1-1.46,2.33,7.14,7.14,0,0,1-2.22,1.62A6.4,6.4,0,0,1,47.79,72.12Zm-4.61-7.35a6,6,0,0,0,.32,2,5.49,5.49,0,0,0,.93,1.7,4.5,4.5,0,0,0,1.46,1.17,4.18,4.18,0,0,0,1.92.44,4.13,4.13,0,0,0,1.95-.46,4.69,4.69,0,0,0,1.44-1.22,5.6,5.6,0,0,0,.9-1.69,6.26,6.26,0,0,0,.3-1.92,6,6,0,0,0-.33-2,5.12,5.12,0,0,0-.92-1.67A4.68,4.68,0,0,0,49.7,60a4.34,4.34,0,0,0-3.85,0,4.65,4.65,0,0,0-1.45,1.19,5.45,5.45,0,0,0-.91,1.68A6.13,6.13,0,0,0,43.18,64.77Z"/><path class="cls-2" d="M59.35,61.81V72H57.07V57.53h1.79L67.15,68V57.55h2.31V72h-1.9Z"/><path class="cls-2" d="M83.12,59.55H78.31V72H76V59.55H71.16v-2h12Z"/><path class="cls-2" d="M90.36,72.12a6.42,6.42,0,0,1-2.83-.62,7.06,7.06,0,0,1-2.19-1.66,7.39,7.39,0,0,1-1.42-2.35,7.75,7.75,0,0,1-.5-2.72A7.46,7.46,0,0,1,84,62a7.56,7.56,0,0,1,1.46-2.35A6.94,6.94,0,0,1,87.61,58a6.48,6.48,0,0,1,2.79-.61,6.2,6.2,0,0,1,2.83.65,7.11,7.11,0,0,1,2.18,1.68,7.83,7.83,0,0,1,1.41,2.36,7.56,7.56,0,0,1,0,5.46,7.47,7.47,0,0,1-1.46,2.33,7.14,7.14,0,0,1-2.22,1.62A6.4,6.4,0,0,1,90.36,72.12Zm-4.61-7.35a6,6,0,0,0,.32,2,5.49,5.49,0,0,0,.93,1.7,4.5,4.5,0,0,0,1.46,1.17,4.18,4.18,0,0,0,1.92.44,4.13,4.13,0,0,0,2-.46,4.69,4.69,0,0,0,1.44-1.22,5.6,5.6,0,0,0,.9-1.69,6.26,6.26,0,0,0,.3-1.92,6,6,0,0,0-.33-2,5.12,5.12,0,0,0-.92-1.67A4.68,4.68,0,0,0,92.27,60a4.34,4.34,0,0,0-3.85,0A4.65,4.65,0,0,0,87,61.16a5.45,5.45,0,0,0-.91,1.68A6.13,6.13,0,0,0,85.75,64.77Z"/><path class="cls-2" d="M99.71,67.45v-2h6.1v2Z"/><path class="cls-2" d="M108.79,72V57.53h5.14a7.73,7.73,0,0,1,3.08.57,6.39,6.39,0,0,1,2.2,1.55,6.51,6.51,0,0,1,1.34,2.3,8.56,8.56,0,0,1,.44,2.8,8.34,8.34,0,0,1-.5,3A6.59,6.59,0,0,1,119.08,70a6.38,6.38,0,0,1-2.23,1.47,8,8,0,0,1-2.92.52Zm9.88-7.27a6.7,6.7,0,0,0-.32-2.1,4.47,4.47,0,0,0-.93-1.64,4,4,0,0,0-1.49-1.07,4.86,4.86,0,0,0-2-.39h-2.85V70h2.85a5,5,0,0,0,2-.4,4.14,4.14,0,0,0,1.49-1.1,4.59,4.59,0,0,0,.91-1.67A6.62,6.62,0,0,0,118.67,64.75Z"/><path class="cls-2" d="M127,57.53h2L134.72,72h-2.41l-1.53-3.94h-5.59L123.68,72h-2.43Zm3.33,8.85L128,60.16l-2.4,6.22Z"/><path class="cls-2" d="M138.64,61.81V72h-2.29V57.53h1.8L146.44,68V57.55h2.3V72h-1.9Z"/><path class="cls-2" d="M152,72V57.53h9.65v2h-7.36v4.32h6.16v1.9h-6.16V72Z"/><path class="cls-2" d="M169.32,72.12a6.48,6.48,0,0,1-2.83-.62,7.06,7.06,0,0,1-2.19-1.66,7.57,7.57,0,0,1-1.42-2.35,7.75,7.75,0,0,1-.5-2.72,7.46,7.46,0,0,1,.53-2.77,7.75,7.75,0,0,1,1.46-2.35A7,7,0,0,1,166.58,58a6.43,6.43,0,0,1,2.78-.61,6.17,6.17,0,0,1,2.83.65,7.11,7.11,0,0,1,2.18,1.68,7.77,7.77,0,0,1,1.91,5,7.5,7.5,0,0,1-.52,2.78,7.29,7.29,0,0,1-1.46,2.33,7.1,7.1,0,0,1-2.21,1.62A6.44,6.44,0,0,1,169.32,72.12Zm-4.61-7.35a6,6,0,0,0,.33,2,5.27,5.27,0,0,0,.92,1.7,4.6,4.6,0,0,0,1.46,1.17,4.18,4.18,0,0,0,1.92.44,4.07,4.07,0,0,0,1.95-.46,4.57,4.57,0,0,0,1.44-1.22,5.38,5.38,0,0,0,.9-1.69,6.32,6.32,0,0,0,0-3.91,5.33,5.33,0,0,0-.93-1.67A4.68,4.68,0,0,0,171.23,60a3.93,3.93,0,0,0-1.89-.44,4.05,4.05,0,0,0-2,.46,4.65,4.65,0,0,0-1.45,1.19,5.67,5.67,0,0,0-.91,1.68A6.13,6.13,0,0,0,164.71,64.77Z"/><path class="cls-2" d="M178.6,72V57.53h6.31a3.9,3.9,0,0,1,1.8.41A4.43,4.43,0,0,1,188.13,59a5,5,0,0,1,.93,1.51,4.66,4.66,0,0,1,.13,3.13,4.52,4.52,0,0,1-.57,1.24,3.55,3.55,0,0,1-.9,1,3.74,3.74,0,0,1-1.16.63L190,72h-2.59l-3.15-5h-3.34v5ZM180.89,65h4a1.85,1.85,0,0,0,.88-.22,2.05,2.05,0,0,0,.69-.59,3,3,0,0,0,.45-.87,3.19,3.19,0,0,0,.16-1,2.78,2.78,0,0,0-.19-1,3.06,3.06,0,0,0-.51-.86,2.44,2.44,0,0,0-.74-.58,1.92,1.92,0,0,0-.87-.21h-3.87Z"/><path class="cls-2" d="M202.42,59.55H197.6V72h-2.3V59.55h-4.84v-2h12Z"/><path class="cls-2" d="M216,57.53V72h-2.3V65.63H206.4V72h-2.28V57.53h2.28v6.06h7.31V57.53Z"/></g></g></svg>