<svg xmlns="http://www.w3.org/2000/svg" viewBox="0 0 1920 583.04"><defs><style>.cls-1{fill:#fff;}</style></defs><title>Rev</title><g id="Layer_2" data-name="Layer 2"><g id="Layer_1-2" data-name="Layer 1"><polygon class="cls-1" points="0 490.63 34.7 490.63 34.7 582.03 67.71 582.03 67.71 490.63 102.23 490.63 102.23 461.86 0 461.86 0 490.63"/><path class="cls-1" d="M217.3,480.31a60.75,60.75,0,0,0-19.12-13.88,57.78,57.78,0,0,0-24.88-5.25,60,60,0,0,0-24.63,5,62.38,62.38,0,0,0-19.47,13.36,61,61,0,0,0-12.77,19.38,59.18,59.18,0,0,0-4.57,22.85,60.38,60.38,0,0,0,4.4,22.68A62.47,62.47,0,0,0,128.62,564a61.48,61.48,0,0,0,19.12,13.8A57.92,57.92,0,0,0,172.62,583,59.16,59.16,0,0,0,197.25,578a61.53,61.53,0,0,0,32.07-32.74,58.53,58.53,0,0,0,4.57-22.77,61.12,61.12,0,0,0-4.32-22.51A62.36,62.36,0,0,0,217.3,480.31Zm-18.53,53.14a31.46,31.46,0,0,1-4.91,10.24,25,25,0,0,1-8.55,7.28,28.93,28.93,0,0,1-24.62.08,25.48,25.48,0,0,1-8.55-7.11,30.41,30.41,0,0,1-5.07-10.07,40.78,40.78,0,0,1-1.69-11.76,42.33,42.33,0,0,1,1.6-11.59,30.41,30.41,0,0,1,5-10.16,25.25,25.25,0,0,1,8.55-7.19,26.8,26.8,0,0,1,33,6.85,29.12,29.12,0,0,1,5.17,10,41.18,41.18,0,0,1,1.69,11.76A43.2,43.2,0,0,1,198.77,533.45Z"/><path class="cls-1" d="M346.24,523a42.83,42.83,0,0,0,4.57-19.55,40.12,40.12,0,0,0-3.05-15.14A44.11,44.11,0,0,0,339.38,475a42,42,0,0,0-12.78-9.48,36.44,36.44,0,0,0-16.25-3.64H255.18V582h33v-36.9h12.36L321.69,582h37.24l-25.39-44.18A39.79,39.79,0,0,0,346.24,523ZM314.68,513q-2.64,3.39-5.68,3.39H288.18V490.63h20q3.06,0,6.1,3.3t3,9.56Q317.29,509.6,314.68,513Z"/><path class="cls-1" d="M473.29,480.31a60.91,60.91,0,0,0-19.13-13.88,57.75,57.75,0,0,0-24.88-5.25,60,60,0,0,0-24.62,5,62.26,62.26,0,0,0-19.47,13.36,60.68,60.68,0,0,0-12.77,19.38,59,59,0,0,0-4.57,22.85,60.57,60.57,0,0,0,4.39,22.68A62.65,62.65,0,0,0,384.6,564a61.6,61.6,0,0,0,19.12,13.8A57.94,57.94,0,0,0,428.61,583,59.08,59.08,0,0,0,453.23,578a61.5,61.5,0,0,0,32.08-32.74,58.52,58.52,0,0,0,4.56-22.77,61.11,61.11,0,0,0-4.31-22.51A62.36,62.36,0,0,0,473.29,480.31Zm-18.53,53.14a31.46,31.46,0,0,1-4.91,10.24A25,25,0,0,1,441.3,551a28.93,28.93,0,0,1-24.62.08,25.61,25.61,0,0,1-8.56-7.11,30.8,30.8,0,0,1-5.07-10.07,40.78,40.78,0,0,1-1.69-11.76,42.33,42.33,0,0,1,1.6-11.59,30.63,30.63,0,0,1,5-10.16,25.31,25.31,0,0,1,8.54-7.19,26.83,26.83,0,0,1,33,6.85,29.1,29.1,0,0,1,5.16,10,40.83,40.83,0,0,1,1.69,11.76A43.19,43.19,0,0,1,454.76,533.45Z"/><polygon class="cls-1" points="585.13 522.96 536.89 461.86 511.17 461.86 511.17 582.03 544.17 582.03 544.17 522.96 591.9 582.03 618.13 582.03 618.13 461.86 585.13 461.86 585.13 522.96"/><polygon class="cls-1" points="634.45 490.63 669.14 490.63 669.14 582.03 702.15 582.03 702.15 490.63 736.67 490.63 736.67 461.86 634.45 461.86 634.45 490.63"/><path class="cls-1" d="M851.74,480.31a60.75,60.75,0,0,0-19.12-13.88,57.78,57.78,0,0,0-24.88-5.25,60,60,0,0,0-24.63,5,62.38,62.38,0,0,0-19.47,13.36,61,61,0,0,0-12.77,19.38,59.18,59.18,0,0,0-4.57,22.85,60.38,60.38,0,0,0,4.4,22.68A62.47,62.47,0,0,0,763.06,564a61.48,61.48,0,0,0,19.12,13.8A57.92,57.92,0,0,0,807.06,583,59.16,59.16,0,0,0,831.69,578a62.52,62.52,0,0,0,19.38-13.45,61.75,61.75,0,0,0,12.69-19.29,58.35,58.35,0,0,0,4.57-22.77A61.12,61.12,0,0,0,864,499.94,62.36,62.36,0,0,0,851.74,480.31Zm-18.53,53.14a31.46,31.46,0,0,1-4.91,10.24,25,25,0,0,1-8.55,7.28,28.93,28.93,0,0,1-24.62.08,25.48,25.48,0,0,1-8.55-7.11,30.41,30.41,0,0,1-5.07-10.07,40.78,40.78,0,0,1-1.69-11.76,42.33,42.33,0,0,1,1.6-11.59,30.41,30.41,0,0,1,5-10.16,25.35,25.35,0,0,1,8.55-7.19A26.8,26.8,0,0,1,828,500a29.12,29.12,0,0,1,5.17,10,41.18,41.18,0,0,1,1.69,11.76A43.2,43.2,0,0,1,833.21,533.45Z"/><rect class="cls-1" x="892" y="520.93" width="52.98" height="28.77"/><path class="cls-1" d="M1063.76,479.46a54.25,54.25,0,0,0-19-12.86q-11.33-4.74-26.23-4.74h-46.2V582h46.2a68.49,68.49,0,0,0,24.88-4.32,55,55,0,0,0,19.13-12.19,53.52,53.52,0,0,0,12.26-18.95,67.82,67.82,0,0,0,4.33-24.8,68.93,68.93,0,0,0-3.9-23.27A54.06,54.06,0,0,0,1063.76,479.46Zm-19.89,54.84a29,29,0,0,1-5.24,10,24,24,0,0,1-8.55,6.6,26.73,26.73,0,0,1-11.51,2.37h-13.2V490.63h13.2a27.26,27.26,0,0,1,11.34,2.29,24.21,24.21,0,0,1,8.55,6.34,28.47,28.47,0,0,1,5.33,9.82,41.12,41.12,0,0,1,1.86,12.69A42.12,42.12,0,0,1,1043.87,534.3Z"/><path class="cls-1" d="M1126.55,461.86,1084.75,582h33.68l7.1-23.53h32L1164.8,582h33.51l-41.63-120.17Zm3.89,74.64,11.18-37.24,10.65,37.24Z"/><polygon class="cls-1" points="1287.61 522.96 1239.37 461.86 1213.64 461.86 1213.64 582.03 1246.65 582.03 1246.65 522.96 1294.38 582.03 1320.61 582.03 1320.61 461.86 1287.61 461.86 1287.61 522.96"/><polygon class="cls-1" points="1348.92 582.03 1381.92 582.03 1381.92 537.35 1422.21 537.35 1422.21 510.6 1381.92 510.6 1381.92 490.63 1431.34 490.63 1431.34 461.86 1348.92 461.86 1348.92 582.03"/><path class="cls-1" d="M1546.94,480.31a60.75,60.75,0,0,0-19.12-13.88,57.78,57.78,0,0,0-24.88-5.25,60,60,0,0,0-24.63,5,62.38,62.38,0,0,0-19.47,13.36,61,61,0,0,0-12.77,19.38,59.18,59.18,0,0,0-4.57,22.85,60.38,60.38,0,0,0,4.4,22.68A62.47,62.47,0,0,0,1458.26,564a61.48,61.48,0,0,0,19.12,13.8,57.92,57.92,0,0,0,24.88,5.24,59.13,59.13,0,0,0,24.63-5.08,62.52,62.52,0,0,0,19.38-13.45A61.75,61.75,0,0,0,1559,545.22a58.35,58.35,0,0,0,4.57-22.77,61.32,61.32,0,0,0-4.31-22.51A62.21,62.21,0,0,0,1546.94,480.31Zm-18.53,53.14a31.46,31.46,0,0,1-4.91,10.24A25,25,0,0,1,1515,551a28.93,28.93,0,0,1-24.62.08,25.57,25.57,0,0,1-8.55-7.11,30.41,30.41,0,0,1-5.07-10.07,40.78,40.78,0,0,1-1.69-11.76,42.33,42.33,0,0,1,1.6-11.59,30.25,30.25,0,0,1,5-10.16,25.22,25.22,0,0,1,8.54-7.19,26.8,26.8,0,0,1,33,6.85,29,29,0,0,1,5.17,10,41.18,41.18,0,0,1,1.69,11.76A43.2,43.2,0,0,1,1528.41,533.45Z"/><path class="cls-1" d="M1675.88,523a42.83,42.83,0,0,0,4.57-19.55,40.12,40.12,0,0,0-3-15.14A44.28,44.28,0,0,0,1669,475a42.19,42.19,0,0,0-12.79-9.48,36.44,36.44,0,0,0-16.25-3.64h-55.17V582h33v-36.9h12.35l21.15,36.9h37.24l-25.39-44.18A39.79,39.79,0,0,0,1675.88,523ZM1644.31,513q-2.62,3.39-5.67,3.39h-20.81V490.63h20q3.06,0,6.1,3.3t3,9.56Q1646.94,509.6,1644.31,513Z"/><polygon class="cls-1" points="1695.17 490.63 1729.86 490.63 1729.86 582.03 1762.87 582.03 1762.87 490.63 1797.39 490.63 1797.39 461.86 1695.17 461.86 1695.17 490.63"/><polygon class="cls-1" points="1886.99 506.2 1846.72 506.2 1846.72 461.86 1813.71 461.86 1813.71 582.03 1846.72 582.03 1846.72 534.98 1886.99 534.98 1886.99 582.03 1920 582.03 1920 461.86 1886.99 461.86 1886.99 506.2"/><path class="cls-1" d="M68,293H93.38l43.56,76H213.6L161.33,278a82,82,0,0,0,26.14-30.49,88.05,88.05,0,0,0,9.41-40.24,82.62,82.62,0,0,0-6.28-31.19,90.91,90.91,0,0,0-17.25-27.53A86.87,86.87,0,0,0,147.05,129a75.28,75.28,0,0,0-33.46-7.49H0V369H68Zm0-112.2h41.12q6.27,0,12.54,6.8t6.28,19.69q0,12.54-5.41,19.51t-11.67,7H68Z"/><path class="cls-1" d="M318.24,320.51H384.1l15,48.44h23.75a184.45,184.45,0,0,0,275,0h65.89V121.55H696.51a185.91,185.91,0,0,0-17-16.35L718.2,0H637.9L617.14,70.43a184.64,184.64,0,0,0-220.91,91.16l-13.87-40h-62L234.27,369h69.34ZM438.35,124A172.91,172.91,0,0,1,613.76,81.9L554.34,283.58,533.2,212.84H468.08l58,156.11h56.45L675.1,117.24q3.66,3.27,7.17,6.77a174.46,174.46,0,0,1,13.47,15.13V352.79a176,176,0,0,1-13.47,15.13,172.45,172.45,0,0,1-242.86,1h28.67L401.82,177.73A172.26,172.26,0,0,1,438.35,124Zm-87,74.54,22,76.66H328.35Z"/><path class="cls-1" d="M997.25,363.72q20-9.06,30.49-25.44t13.58-39.55a383.48,383.48,0,0,0,3.14-51.39V121.55h-68V247.34q0,17.78-1,30.14c-.69,8.25-2.22,15-4.53,20.21A22.62,22.62,0,0,1,960.83,309q-6.63,3.5-17.42,3.49a69.26,69.26,0,0,1-14.11-1.4,104,104,0,0,1-12-3.13,65.43,65.43,0,0,1-8.7-3.49A46.06,46.06,0,0,1,904,302l-14.29,55.41q22.29,15.33,53.66,15.33Q977.21,372.78,997.25,363.72Z"/><path class="cls-1" d="M1294.29,159.53A125.24,125.24,0,0,0,1254.91,131q-23-10.8-51.21-10.81-27.54,0-50.7,10.28A128.27,128.27,0,0,0,1112.93,158a124.67,124.67,0,0,0-26.31,39.9,121.33,121.33,0,0,0-9.41,47,124.42,124.42,0,0,0,9.06,46.69,128.8,128.8,0,0,0,25.43,40.25,126.8,126.8,0,0,0,39.38,28.4q23,10.8,51.22,10.8,27.53,0,50.71-10.46a128.59,128.59,0,0,0,39.89-27.7A126.92,126.92,0,0,0,1319,293.16a120.1,120.1,0,0,0,9.41-46.87,126,126,0,0,0-8.88-46.34A128.33,128.33,0,0,0,1294.29,159.53Zm-38.15,109.41A64.47,64.47,0,0,1,1246,290a51.64,51.64,0,0,1-17.59,15q-10.82,5.75-25.43,5.74t-25.27-5.57a52.53,52.53,0,0,1-17.6-14.64,62.86,62.86,0,0,1-10.45-20.73,83.94,83.94,0,0,1-3.49-24.22,87.31,87.31,0,0,1,3.31-23.86,62.67,62.67,0,0,1,10.29-20.91A51.92,51.92,0,0,1,1177.39,186q10.62-5.56,25.26-5.57,14.28,0,24.92,5.4a53.78,53.78,0,0,1,17.76,14.28A59.75,59.75,0,0,1,1256,220.68a84.73,84.73,0,0,1,3.48,24.22A89.15,89.15,0,0,1,1256.14,268.94Z"/><path class="cls-1" d="M1468.28,307.79q-4.37,3-15.51,3a100.6,100.6,0,0,1-28.75-4.18,180.33,180.33,0,0,1-25.27-9.4,205.79,205.79,0,0,1-25.43-13.59l-29.26,59.58A172.32,172.32,0,0,0,1368.27,355a250.8,250.8,0,0,0,27.17,9.06,240,240,0,0,0,28.4,5.92,193.07,193.07,0,0,0,27.88,2.09,147.34,147.34,0,0,0,34-4A91.18,91.18,0,0,0,1516,355a67.16,67.16,0,0,0,21.61-24.22q8.18-15.15,8.18-37.46,0-17.41-5.22-29.61a57.11,57.11,0,0,0-15-20.74,95.53,95.53,0,0,0-23.52-14.81,255,255,0,0,0-30.84-11.5q-10.8-3.48-19.34-5.92a112.51,112.51,0,0,1-14.45-5.05,29.55,29.55,0,0,1-9.06-5.75,10.82,10.82,0,0,1-3.14-8q0-6.62,5.4-9.41c3.6-1.85,8.41-2.78,14.46-2.78a76,76,0,0,1,22.82,3.66,197.13,197.13,0,0,1,21.08,7.84,187.76,187.76,0,0,1,21.61,11.15l29.27-56.1q-8.36-4.18-18.82-8.89a237.8,237.8,0,0,0-22.47-8.71,211.69,211.69,0,0,0-24.92-6.62,133,133,0,0,0-26.48-2.61,112.19,112.19,0,0,0-35,5.4,91.12,91.12,0,0,0-29.44,15.85,74.41,74.41,0,0,0-20.39,26.14q-7.48,15.68-7.49,36.24a72.64,72.64,0,0,0,3.66,24,52.31,52.31,0,0,0,11.33,18.64,76.28,76.28,0,0,0,19.51,14.63,181.26,181.26,0,0,0,28.22,12q11.15,3.82,21.08,6.61t17.61,5.58a40.07,40.07,0,0,1,12,6.45,11.24,11.24,0,0,1,4.35,8.88A9.09,9.09,0,0,1,1468.28,307.79Z"/><polygon class="cls-1" points="1734.14 212.84 1651.2 212.84 1651.2 121.55 1583.26 121.55 1583.26 368.95 1651.2 368.95 1651.2 272.08 1734.14 272.08 1734.14 368.95 1802.08 368.95 1802.08 121.55 1734.14 121.55 1734.14 212.84"/><rect class="cls-1" x="1852.06" y="121.55" width="67.94" height="247.4"/></g></g></svg>